 <svg  version="1.0" xmlns="http://www.w3.org/2000/svg"  width="900.000000pt" height="954.000000pt" viewBox="0 0 900.000000 954.000000"  preserveAspectRatio="xMidYMid meet">  <g transform="translate(0.000000,954.000000) scale(0.100000,-0.100000)" fill="#0080ff" stroke="none"> <path d="M4131 8998 c-24 -11 -52 -35 -62 -52 -22 -36 -24 -50 -44 -326 -9 -118 -20 -225 -25 -236 -5 -14 -20 -23 -42 -27 -60 -9 -122 -28 -183 -54 -111 -48 -250 -116 -274 -135 -47 -36 -72 -22 -233 128 -26 24 -51 44 -55 44 -5 0 -39 29 -76 65 -111 104 -157 122 -230 91 -40 -17 -572 -552 -587 -590 -13 -36 -13 -92 2 -119 21 -39 109 -150 177 -223 101 -109 161 -184 161 -201 0 -9 -15 -45 -34 -82 -72 -138 -134 -290 -165 -407 -6 -22 -19 -48 -28 -56 -20 -17 -180 -35 -392 -43 -139 -5 -149 -8 -203 -58 l-28 -26 0 -425 0 -424 26 -32 c37 -44 80 -58 203 -69 146 -13 333 -25 348 -22 23 4 52 -19 66 -52 8 -17 26 -69 41 -115 35 -111 94 -253 114 -274 34 -39 82 -14 272 141 14 12 45 36 70 54 160 118 160 118 160 152 0 31 -12 68 -46 142 -8 17 -14 41 -14 53 0 12 -6 42 -14 68 -48 165 -63 468 -30 629 24 121 55 247 63 258 4 6 16 33 26 60 31 86 84 186 160 300 56 84 106 142 212 246 133 130 209 191 283 225 8 4 26 15 40 24 91 62 365 154 543 181 162 25 461 12 572 -24 28 -10 91 -29 140 -43 50 -14 104 -34 120 -44 17 -10 40 -21 52 -24 21 -7 146 -77 226 -127 111 -70 330 -295 424 -436 49 -74 141 -256 154 -307 4 -17 17 -56 28 -87 66 -182 89 -515 51 -724 -13 -77 -51 -217 -62 -231 -10 -14 -38 -118 -38 -143 0 -24 21 -43 150 -141 62 -47 151 -116 199 -153 113 -89 133 -89 177 0 33 66 89 206 124 308 11 33 27 65 35 71 9 7 81 15 168 19 84 4 166 8 182 10 17 2 61 6 100 10 65 7 72 11 120 56 l50 48 3 401 3 401 -23 40 c-34 61 -74 77 -209 84 -242 12 -384 27 -401 42 -9 8 -20 29 -24 47 -12 56 -94 269 -132 344 -20 40 -45 89 -55 109 -10 20 -16 45 -13 57 3 12 65 86 137 166 72 80 149 172 170 204 64 97 52 164 -49 263 -32 32 -155 153 -273 269 -125 123 -228 216 -248 224 -27 11 -42 11 -79 1 -45 -12 -60 -23 -207 -155 -106 -96 -234 -196 -250 -196 -8 0 -30 11 -49 24 -19 13 -79 42 -133 65 -54 23 -123 53 -153 66 -30 13 -87 34 -126 45 -40 11 -77 27 -84 35 -7 8 -14 49 -16 92 -3 43 -9 122 -14 176 -6 54 -10 128 -10 165 0 71 -22 134 -56 164 -39 33 -93 38 -469 38 -359 0 -371 -1 -414 -22z"/> <path d="M4694 7177 c-74 -39 -120 -61 -289 -137 -33 -15 -70 -39 -83 -52 l-22 -25 0 -1100 c0 -1259 8 -1153 -86 -1133 -94 20 -85 -85 -84 973 0 823 -2 941 -15 967 -22 43 -57 48 -103 16 -21 -14 -41 -26 -45 -26 -8 0 -117 -49 -180 -81 -21 -10 -43 -19 -50 -19 -7 0 -28 -11 -46 -24 -19 -14 -46 -28 -62 -31 -16 -4 -40 -20 -54 -37 l-25 -30 0 -652 c0 -679 0 -676 -41 -676 -22 0 -129 105 -189 184 -24 32 -55 62 -68 67 -28 11 -35 7 -151 -80 -40 -31 -83 -62 -95 -70 -11 -8 -37 -29 -56 -46 -19 -17 -54 -44 -78 -60 -53 -35 -82 -70 -82 -100 0 -50 191 -264 381 -427 91 -78 292 -212 369 -245 30 -13 80 -37 110 -52 30 -16 82 -38 115 -49 33 -12 85 -31 115 -43 30 -12 84 -25 120 -30 36 -5 76 -13 90 -19 26 -10 97 -24 215 -41 83 -13 487 -6 560 10 28 5 73 15 100 21 28 6 79 17 115 25 158 32 279 76 459 165 49 24 242 141 281 171 14 10 52 38 85 61 72 50 336 311 358 353 8 17 24 39 36 49 34 30 27 72 -16 113 -21 19 -49 42 -63 51 -29 20 -133 102 -140 112 -3 3 -32 25 -65 48 -33 23 -71 50 -85 61 -46 37 -93 25 -134 -35 -36 -53 -163 -182 -186 -189 -50 -16 -49 -28 -52 639 -2 510 -5 626 -17 639 -19 24 -75 21 -156 -7 -39 -14 -110 -38 -160 -55 -182 -63 -225 -83 -231 -107 -3 -12 -6 -345 -7 -739 -2 -697 -3 -717 -21 -731 -17 -12 -71 -20 -78 -11 -2 1 -5 551 -8 1223 -4 1015 -7 1224 -19 1237 -23 29 -79 20 -167 -26z"/> <path d="M2380 3234 c-14 -3 -54 -16 -90 -30 -77 -28 -147 -93 -179 -164 -25 -54 -29 -183 -7 -234 18 -43 69 -100 121 -136 43 -29 184 -89 276 -116 92 -28 134 -95 93 -152 -22 -32 -61 -48 -130 -55 -56 -6 -67 -3 -135 29 -41 19 -81 44 -90 56 -22 29 -49 17 -118 -50 -63 -63 -75 -85 -62 -110 11 -21 103 -85 151 -105 103 -43 238 -64 313 -47 26 5 67 14 92 20 60 13 99 34 151 82 75 69 97 119 102 225 4 85 2 94 -24 143 -44 81 -130 141 -270 189 -138 47 -170 62 -196 91 -16 17 -28 41 -28 54 0 66 139 124 196 81 10 -8 27 -15 36 -15 9 0 30 -11 46 -25 49 -41 77 -34 149 40 35 36 63 71 63 78 0 28 -90 95 -171 127 -40 17 -80 23 -159 25 -58 2 -116 1 -130 -1z"/> <path d="M5380 3233 c-192 -35 -367 -179 -435 -358 -114 -305 68 -652 386 -734 125 -33 174 -35 279 -11 120 26 204 68 285 142 131 120 187 242 187 408 0 82 -4 107 -31 179 -69 187 -220 321 -421 372 -35 9 -204 10 -250 2z m233 -255 c68 -29 144 -93 167 -141 85 -175 18 -378 -149 -453 -67 -30 -178 -33 -254 -6 -68 23 -140 90 -173 159 -45 97 -43 182 10 305 20 47 115 123 176 143 70 21 163 19 223 -7z"/> <path d="M296 3209 l-21 -17 54 -164 c29 -90 70 -212 91 -273 21 -60 55 -164 76 -230 20 -66 41 -127 45 -135 4 -8 15 -42 24 -75 9 -33 23 -75 31 -93 8 -18 14 -39 14 -47 0 -8 8 -18 18 -23 22 -12 200 -14 222 -2 9 5 33 63 59 142 23 73 54 167 67 208 32 99 51 165 65 223 8 35 15 47 27 45 15 -3 28 -36 92 -248 30 -98 57 -182 96 -305 9 -27 21 -56 26 -62 7 -9 43 -13 114 -13 91 0 107 3 124 20 11 11 20 29 20 39 0 11 14 57 30 102 17 45 35 98 40 118 5 20 26 88 48 151 22 63 56 169 77 235 20 66 47 146 61 178 13 32 24 66 24 75 0 9 10 40 22 69 17 42 19 57 11 76 -11 24 -13 24 -115 19 -56 -2 -111 -9 -120 -13 -10 -5 -22 -28 -29 -52 -6 -23 -24 -82 -39 -132 -60 -189 -118 -381 -127 -415 -21 -83 -39 -46 -148 320 -26 85 -56 184 -69 220 l-22 65 -105 3 c-91 2 -107 0 -121 -15 -13 -15 -56 -142 -97 -283 -5 -19 -20 -62 -31 -95 -12 -33 -31 -96 -42 -140 -24 -93 -35 -118 -51 -112 -6 2 -15 17 -18 33 -4 16 -12 43 -18 59 -12 34 -92 291 -117 375 -29 99 -56 170 -67 177 -6 4 -54 7 -106 8 -75 1 -98 -3 -115 -16z"/> <path d="M3670 3212 c-20 -17 -21 -28 -21 -537 l0 -520 25 -6 c41 -11 199 -9 213 3 10 8 13 60 13 208 0 174 2 199 16 204 28 11 388 5 402 -6 9 -8 12 -61 12 -202 0 -136 4 -196 12 -204 17 -17 199 -16 221 1 15 11 17 56 18 527 1 607 14 550 -132 544 -50 -2 -98 -9 -105 -15 -11 -9 -14 -51 -14 -193 0 -99 -4 -187 -9 -195 -7 -11 -46 -14 -202 -12 -119 1 -198 6 -206 13 -10 8 -13 56 -13 189 0 211 5 204 -128 212 -67 4 -86 2 -102 -11z"/> <path d="M7428 3223 c-76 -4 -93 -17 -173 -123 -22 -29 -55 -69 -73 -89 -18 -20 -65 -78 -103 -128 -39 -51 -77 -93 -84 -93 -8 0 -23 12 -35 28 -12 15 -33 42 -48 61 -47 59 -86 108 -142 182 -30 40 -72 91 -92 114 l-37 40 -96 3 c-149 6 -135 63 -134 -544 0 -374 3 -516 12 -521 21 -13 218 -15 233 -2 11 9 14 65 14 310 0 208 3 300 11 305 15 9 49 -30 244 -278 61 -78 70 -80 111 -33 66 74 89 103 139 170 77 104 120 149 134 141 9 -6 11 -85 11 -304 -1 -272 0 -297 16 -309 27 -20 208 -18 228 3 14 14 16 75 16 524 l0 509 -26 20 c-15 12 -34 20 -43 19 -9 -1 -46 -3 -83 -5z"/> <path d="M8072 3220 c-59 -4 -86 -9 -92 -20 -6 -9 -10 -221 -10 -522 0 -447 2 -508 16 -522 13 -14 64 -16 404 -16 351 0 390 2 405 17 14 14 17 32 13 104 -2 52 -9 94 -17 103 -12 14 -48 16 -275 16 -143 0 -268 4 -276 10 -18 11 -15 170 3 182 7 4 98 8 203 8 144 0 194 3 202 13 6 7 12 53 13 101 2 76 -1 91 -17 103 -13 10 -65 13 -210 13 -189 0 -193 0 -200 22 -8 25 -7 125 2 139 3 5 116 9 255 9 154 0 258 4 270 10 17 10 19 22 19 109 0 67 -4 102 -12 109 -14 11 -556 20 -696 12z"/> <path d="M4448 1429 c-16 -9 -18 -32 -18 -263 0 -202 3 -256 14 -265 9 -7 77 -11 202 -12 171 -1 189 1 202 18 16 22 10 92 -10 104 -7 5 -66 9 -130 9 -114 0 -118 1 -134 25 -30 46 -15 55 89 55 78 0 97 3 110 18 21 23 22 71 1 100 -14 20 -23 22 -105 22 -74 0 -91 3 -96 16 -3 9 -2 24 4 33 8 13 31 16 126 17 136 1 147 7 147 70 0 38 -4 46 -24 53 -32 13 -357 12 -378 0z"/> <path d="M3899 1426 c-4 -5 -200 -20 -239 -18 -14 0 -31 -4 -37 -10 -16 -13 -17 -104 -1 -114 6 -4 39 -10 72 -13 l61 -6 7 -60 c4 -33 11 -117 16 -188 6 -73 15 -133 22 -142 22 -27 111 -14 123 19 3 8 -1 77 -9 151 -8 75 -14 160 -12 188 3 50 4 52 33 55 62 5 103 22 109 45 18 69 -6 97 -86 97 -30 0 -57 -2 -59 -4z"/> <path d="M5040 1415 c-7 -8 -15 -78 -20 -182 -5 -92 -12 -207 -16 -254 l-6 -86 46 -16 c50 -17 71 -15 80 9 3 8 11 65 17 127 13 116 17 131 34 119 14 -9 73 -93 118 -169 50 -82 88 -113 138 -113 58 0 68 23 74 166 3 65 10 170 15 232 13 143 9 152 -65 152 -63 0 -75 -13 -75 -82 0 -86 -13 -178 -25 -178 -6 0 -30 28 -53 63 -23 34 -62 92 -86 128 -24 37 -55 74 -67 83 -29 20 -92 21 -109 1z"/> <path d="M3160 1351 c-98 -14 -115 -19 -118 -35 -2 -10 3 -78 13 -150 9 -72 22 -180 30 -239 14 -115 24 -137 60 -137 35 0 83 20 89 37 4 8 1 42 -6 75 -14 69 -7 80 52 76 31 -3 40 -11 78 -68 24 -35 49 -68 55 -72 7 -4 33 -8 59 -8 37 0 50 4 58 19 15 29 14 34 -35 99 -25 33 -45 65 -45 71 0 7 12 35 26 63 68 134 -22 289 -166 286 -19 0 -87 -8 -150 -17z m179 -135 c7 -8 11 -30 9 -48 -3 -29 -8 -35 -47 -47 -64 -20 -95 -7 -99 43 -2 21 -1 44 2 52 8 20 119 19 135 0z"/> <path d="M5734 1344 c-13 -18 -20 -57 -25 -123 -4 -53 -12 -121 -17 -152 -13 -71 -18 -221 -8 -237 4 -7 22 -12 39 -12 18 0 48 -4 67 -10 60 -16 253 -28 277 -17 22 10 33 34 33 75 0 29 -26 39 -143 53 -126 15 -139 21 -135 62 l3 32 100 -4 c110 -3 117 0 129 55 10 45 -24 69 -106 77 -82 8 -98 14 -98 42 0 33 21 46 57 36 16 -5 66 -12 110 -16 105 -9 123 0 123 59 0 25 -6 48 -14 55 -12 10 -180 35 -323 48 -47 4 -53 3 -69 -23z"/> <path d="M6337 1278 c-12 -9 -21 -36 -27 -79 -5 -36 -12 -72 -15 -80 -2 -8 -9 -43 -15 -79 -5 -36 -18 -107 -28 -158 -19 -92 -19 -94 0 -118 15 -18 29 -24 58 -24 46 0 59 17 75 95 l10 50 39 -1 c43 -2 66 -23 66 -60 0 -12 9 -44 21 -72 22 -52 47 -70 103 -75 44 -3 52 20 32 94 -9 35 -19 73 -22 84 -4 15 7 33 39 65 36 37 46 56 57 107 17 82 -1 134 -61 180 -61 47 -296 97 -332 71z m221 -168 c66 -41 30 -102 -56 -92 -83 8 -96 25 -67 82 13 25 22 30 53 30 20 0 52 -9 70 -20z"/> <path d="M2593 1259 c-43 -12 -63 -44 -63 -99 0 -25 -4 -50 -9 -55 -9 -10 -23 -81 -41 -215 -6 -41 -18 -99 -27 -127 -21 -70 -10 -85 61 -81 56 3 67 15 83 93 8 40 8 40 78 57 89 21 125 22 125 4 0 -24 49 -74 78 -80 15 -3 41 -2 57 2 26 8 30 13 29 43 -1 20 -15 56 -35 87 -95 149 -109 172 -115 196 -3 14 -10 29 -15 32 -5 3 -29 36 -54 73 -55 85 -73 93 -152 70z m92 -234 c15 -20 24 -43 21 -50 -7 -20 -53 -19 -63 0 -10 18 -4 85 7 85 4 0 20 -16 35 -35z"/> <path d="M2120 1165 c-19 -7 -40 -23 -47 -36 -28 -55 -73 -159 -79 -182 -8 -35 -31 -41 -62 -16 -158 121 -195 139 -257 121 -20 -5 -31 -16 -33 -31 -3 -21 20 -130 38 -175 4 -11 16 -59 26 -106 9 -47 22 -94 28 -105 5 -11 12 -38 15 -60 4 -29 13 -43 32 -54 23 -13 30 -12 65 5 46 23 51 39 31 113 -32 115 -46 176 -41 180 7 7 74 -27 74 -38 0 -12 84 -61 105 -61 9 0 24 18 35 45 11 25 29 66 40 91 17 39 23 44 35 34 8 -7 17 -28 20 -49 12 -72 49 -192 65 -206 19 -17 84 -6 109 19 17 18 13 37 -48 261 -16 55 -34 126 -41 158 -14 60 -42 108 -63 106 -7 -1 -28 -7 -47 -14z"/> <path d="M7055 1117 c-68 -18 -143 -73 -180 -133 -28 -46 -30 -55 -29 -144 0 -85 3 -101 28 -143 44 -75 117 -125 216 -147 47 -10 66 -10 120 4 86 22 112 42 126 98 7 25 17 54 23 66 15 29 14 77 -3 92 -19 15 -134 50 -167 50 -54 0 -80 -74 -37 -104 12 -9 30 -16 40 -16 28 0 22 -39 -8 -50 -63 -24 -147 6 -184 65 -55 89 6 219 106 227 74 5 94 -2 143 -47 26 -25 57 -45 67 -45 11 0 35 13 53 28 33 27 33 28 18 58 -56 108 -207 172 -332 141z"/> <path d="M7567 993 c-13 -12 -7 -68 13 -141 11 -39 20 -83 20 -96 0 -13 7 -40 15 -59 21 -51 19 -89 -10 -170 -34 -94 -26 -116 52 -130 40 -8 53 9 84 102 12 36 34 77 49 91 109 104 190 179 220 202 31 24 33 29 22 52 -7 15 -20 26 -31 26 -11 0 -23 5 -26 10 -3 6 -19 10 -35 10 -27 0 -108 -62 -153 -117 -25 -31 -45 -29 -53 5 -3 15 -10 40 -15 56 -5 16 -9 43 -9 61 0 43 -30 79 -78 93 -45 14 -56 15 -65 5z"/> <path d="M1287 939 c-70 -22 -89 -35 -127 -85 -55 -73 -33 -177 47 -221 25 -14 67 -23 123 -28 46 -4 93 -11 103 -17 29 -15 17 -49 -27 -71 -35 -18 -43 -19 -87 -8 -60 16 -73 8 -91 -51 -11 -38 -10 -42 11 -59 19 -15 40 -19 110 -19 103 0 149 18 203 78 45 50 55 96 37 165 -19 70 -49 89 -170 106 -52 7 -104 17 -116 22 -57 22 0 75 72 67 42 -5 47 -3 76 29 35 40 34 59 -1 83 -37 27 -97 30 -163 9z"/> </g> </svg> 